<?xml version="1.0" encoding="utf-8"?>
<!-- Generator: Adobe Illustrator 22.0.0, SVG Export Plug-In . SVG Version: 6.00 Build 0)  -->
<svg version="1.1" id="Layer_1" xmlns="http://www.w3.org/2000/svg" xmlns:xlink="http://www.w3.org/1999/xlink" x="0px" y="0px"
	 viewBox="0 0 512 512" style="enable-background:new 0 0 512 512;" xml:space="preserve">
<style type="text/css">
	.st0{fill:#233659;}
	.st1{fill:#F5F5F5;}
	.st2{fill:#F05050;}
</style>
<path class="st0" d="M400,512H112C50.1,512,0,461.9,0,400V112C0,50.1,50.1,0,112,0h288c61.9,0,112,50.1,112,112v288
	C512,461.9,461.9,512,400,512z"/>
<g>
	<path class="st1" d="M512,400v-24.6l-79.4-52H512v-26.9H296.4V512h26.9V348.5l170.9,112c6.1-9.4,10.7-19.8,13.8-30.9"/>
	<path class="st1" d="M7.5,440.4c2.7,7,6.1,13.7,10.2,20l170.9-112V512h26.9V296.4H0v26.9h79.4L0,375.4V400c0,4.3,0.3,8.6,0.7,12.7"
		/>
	<path class="st1" d="M0,115.8v20.8l79.4,52H0v26.9h215.6V0h-26.9v163.5L17.7,51.5C11.1,61.9,6.1,73.4,3.1,85.7"/>
	<path class="st1" d="M504.3,71.2c-2.7-6.9-6.1-13.5-10-19.6l-170.9,112V0h-26.9v215.6H512v-26.9h-79.4l79.4-52V112
		c0-4.5-0.3-8.9-0.8-13.2"/>
</g>
<g>
	<polygon class="st2" points="296.4,0 215.6,0 215.6,215.6 0,215.6 0,296.4 215.6,296.4 215.6,512 296.4,512 296.4,296.4 512,296.4 
		512,215.6 296.4,215.6 	"/>
	<path class="st2" d="M138.4,323.4L0.7,412.7c1.1,9.7,3.4,19,6.8,27.7l180.4-117.1L138.4,323.4L138.4,323.4L138.4,323.4z"/>
	<path class="st2" d="M344.5,323.4l163.6,106.2c2.6-9.4,3.9-19.3,3.9-29.6v0l-118-76.6L344.5,323.4L344.5,323.4z"/>
	<path class="st2" d="M161.7,188.6L3.1,85.7C1.1,94.1,0,102.9,0,112v3.8l112.2,72.8L161.7,188.6L161.7,188.6z"/>
	<path class="st2" d="M372.9,188.6l138.4-89.8c-1.1-9.6-3.5-18.9-6.9-27.6l-181,117.5H372.9z"/>
</g>
</svg>
