<?xml version="1.0" encoding="utf-8"?>
<!-- Generator: Adobe Illustrator 22.0.0, SVG Export Plug-In . SVG Version: 6.00 Build 0)  -->
<svg version="1.1" id="Layer_1" xmlns="http://www.w3.org/2000/svg" xmlns:xlink="http://www.w3.org/1999/xlink" x="0px" y="0px"
	 viewBox="0 0 300 175" style="enable-background:new 0 0 300 175;" xml:space="preserve">
<style type="text/css">
	.st0{fill:#FFFFFF;}
	.st1{fill:#FF891E;}
</style>
<g>
	<path class="st0" d="M299.4,60.9C269.4,24.5,214.1,0,150.8,0C87.5,0,32.2,24.5,2.2,60.9h117.3c18.2-20.8,51.6-34.7,90-34.7
		C247.7,26.3,281.2,40.2,299.4,60.9z"/>
	<path class="st1" d="M2,114.1C32,150.5,87.3,175,150.6,175c63.3,0,118.6-24.5,148.6-60.9H181.9c-18.2,20.8-51.6,34.7-89.9,34.7
		C53.6,148.7,20.1,134.8,2,114.1z"/>
	<path class="st0" d="M58.3,77.6H46c-3.1,0-6.2,1.1-7.5,3.1c-1.4,2-9.4,13.7-9.4,13.7s-8.5-12.2-9.6-13.7c-1-1.5-4.8-3.1-9.2-3.1
		c-4.4,0-9.7,0-9.7,0s16.2,19.3,17.1,20.3c0.9,1,5.1,3,11,3s9.8-1.1,11.5-3c1.6-2,10.6-12.9,10.6-12.9s0,11.4,0,12.9
		c0,1.5,2.5,3,7.6,3c5.1,0,8.5-1.5,8.5-3V80.6C66.8,79.1,63.8,77.6,58.3,77.6z M277.7,95.2c-3.1,0-4.9-1.1-4.9-4
		c0-2.9,0-10.6,0-10.6c0-1.6-3-3.1-8.1-3.1c-5,0-8,0.2-8,3.1s0,15,0,15s-23.7,0-26.4,0c-2.7,0-3.9-0.3-3.9-2.5c0-2.1,0-2.1,0-2.1
		s16.8,0,19.7,0c2.9,0,5.3,0.1,5.3-2.3c0-2.4,0-2.4,0-2.4s-18.5,0-21.2,0c-2.7,0-3.9-0.4-3.9-2c0-1.7,0-1.7,0-1.7s18.5,0,21.3,0
		s5.7-0.9,5.7-1.9c0-1.1,0-3.1,0-3.1s-27.4,0-60.8,0c-2.3,0-2.3-2.3-2.3-2.3v-0.5c0-1.4-2.8-3-7.5-3c-4.6,0-8.6,1.2-8.6,3v0.6
		l-0.1-0.1c0,0,0,2.3-2.3,2.3h-19.2c-2.3,0-2.3-2.3-2.3-2.3l-0.1,0.1v-0.6c0-1.4-2.8-3-7.5-3c-4.6,0-8.6,1.2-8.6,3v0.5
		c0,0,0,2.3-2.3,2.3H75.3c-2.9,0-4.4,1-4.4,3.1c0,1.5,0,17.3,0,17.3c0,1.5,1.9,3,6.5,3h31.7c2.4,0,5.6-1.5,5.6-3.1
		c0-1.6,0-2.2,0-2.2s-21.8,0-24,0S87,95.1,87,93.1c0-2.1,0-2.1,0-2.1s17.3,0,19.6,0c2.3,0,5.4,0,5.4-2.3c0-2.4,0-2.4,0-2.4
		s-19,0-21.2,0c-2.2,0-3.8-0.2-3.8-1.5c0-1.4,0-1.4,0-1.4s35.9,0,40,0c4.1,0,7.4,1.3,7.4,5.3v9.2c0,1.4,3.8,3,8.2,3
		c4.4,0,7.8-1.6,7.8-3v-9.2c0-2.3,2-5.3,6.5-5.3h11c3.7,0,6.4,1.7,6.4,5.1v9.4c0,1.4,2.8,3,7.5,3c4.6,0,8.6-1.2,8.6-3v-9.4
		c0-2.3,3-5.1,5.7-5.1h8.3c2.9,0,6,1.9,6,5.3v9.2c0,1.4,1.3,3,4.8,3h76.2c3.5,0,6.3-1.4,6.3-3c0-1.7,0-2.7,0-2.7
		S280.8,95.2,277.7,95.2z"/>
</g>
</svg>
